<?xml version="1.0" standalone="no"?>
<!DOCTYPE svg PUBLIC "-//W3C//DTD SVG 20010904//EN" "http://www.w3.org/TR/2001/REC-SVG-20010904/DTD/svg10.dtd">
<svg version="1.0" xmlns="http://www.w3.org/2000/svg" width="700.000000pt" height="700.000000pt"
  viewBox="0 0 700.000000 700.000000" preserveAspectRatio="xMidYMid meet">
  <metadata>
    Created by potrace 1.14, written by Peter Selinger 2001-2017
  </metadata>
  <g transform="translate(0.000000,700.000000) scale(0.100000,-0.100000)" fill="#000000" stroke="none">
    <path d="M3435 6701 c-91 -22 -171 -91 -204 -177 -19 -49 -21 -76 -21 -235 0
-98 -3 -180 -7 -180 -5 -1 -17 -3 -28 -4 -46 -6 -111 -16 -125 -20 -8 -2 -33
-6 -55 -10 -51 -7 -252 -60 -330 -86 -385 -132 -733 -347 -1015 -629 -238
-239 -410 -487 -545 -787 -59 -132 -131 -336 -150 -428 -25 -117 -46 -220 -50
-251 -3 -22 -8 -53 -10 -71 l-6 -31 -192 -4 c-177 -3 -196 -5 -239 -26 -105
-52 -161 -143 -162 -262 0 -63 4 -83 27 -125 33 -62 43 -74 88 -108 66 -49
106 -57 301 -58 98 0 178 -3 179 -7 0 -4 2 -16 4 -27 2 -11 7 -40 10 -65 53
-402 236 -838 494 -1180 207 -275 512 -550 761 -686 19 -10 37 -22 40 -25 8
-9 293 -146 320 -154 14 -4 39 -13 55 -21 120 -53 427 -129 593 -147 17 -2 34
-6 37 -8 2 -3 5 -88 5 -189 2 -174 3 -188 26 -236 30 -63 79 -113 141 -144 66
-34 177 -34 245 -1 56 27 111 80 141 136 20 36 22 58 25 237 l4 197 36 6 c21
3 62 10 92 15 30 5 73 12 95 16 22 3 43 8 46 10 3 2 19 5 35 8 72 13 254 70
371 116 490 194 915 537 1211 977 40 58 172 281 171 286 0 1 16 38 36 82 111
244 186 505 219 760 3 22 5 41 6 42 0 1 81 2 179 3 190 0 232 8 294 52 182
129 158 406 -43 502 -40 19 -68 22 -239 26 -185 5 -194 6 -196 25 -7 80 -47
290 -66 351 -5 17 -11 40 -13 50 -2 10 -20 67 -40 126 -222 661 -722 1226
-1347 1522 -229 109 -487 192 -686 222 -112 16 -156 24 -159 27 -2 1 -4 86 -4
187 -2 174 -3 188 -26 235 -13 28 -32 59 -42 70 -68 80 -188 120 -287 96z
m325 -1175 c14 -2 42 -7 63 -10 266 -40 567 -157 798 -312 442 -295 742 -722
864 -1231 26 -108 28 -120 42 -233 10 -83 10 -394 0 -484 -13 -119 -47 -265
-93 -405 -190 -569 -631 -1032 -1195 -1254 -58 -23 -181 -63 -219 -72 -8 -2
-37 -9 -65 -15 -152 -35 -251 -45 -455 -45 -161 0 -286 7 -321 19 -8 3 -30 7
-49 9 -60 8 -206 46 -297 78 -704 247 -1216 849 -1344 1579 -31 175 -33 535
-4 680 3 14 8 39 10 55 3 17 8 37 10 45 2 8 7 30 10 49 11 67 95 299 144 402
217 454 603 817 1070 1008 140 57 280 98 396 117 17 3 36 7 44 10 8 2 48 7 90
10 42 4 78 8 81 11 6 6 384 -4 420 -11z" />
    <path d="M3355 4658 c-270 -31 -558 -187 -745 -404 -102 -118 -202 -308 -236
-449 -1 -5 -8 -32 -14 -60 -37 -154 -31 -384 14 -546 35 -124 105 -287 129
-297 4 -2 7 -9 7 -14 0 -6 24 -43 54 -82 168 -222 380 -363 651 -436 171 -46
389 -46 570 0 413 105 737 426 846 840 31 120 42 306 25 441 -62 502 -463 918
-966 1000 -85 14 -247 17 -335 7z m284 -594 c255 -58 444 -298 442 -564 0 -36
-2 -76 -4 -90 -28 -181 -155 -352 -320 -430 -197 -95 -402 -81 -579 37 -89 59
-151 130 -199 228 -69 142 -80 291 -32 440 66 206 260 364 482 393 68 9 126 5
210 -14z" />
  </g>
</svg>
